<?xml version="1.0" encoding="UTF-8" standalone="no"?>
<!-- Created with Inkscape (http://www.inkscape.org/) -->

<svg
   width="100mm"
   height="100mm"
   viewBox="0 0 100 100"
   version="1.1"
   id="svg5"
   inkscape:version="1.1.1 (3bf5ae0d25, 2021-09-20)"
   sodipodi:docname="logo.svg"
   xmlns:inkscape="http://www.inkscape.org/namespaces/inkscape"
   xmlns:sodipodi="http://sodipodi.sourceforge.net/DTD/sodipodi-0.dtd"
   xmlns="http://www.w3.org/2000/svg"
   xmlns:svg="http://www.w3.org/2000/svg">
  <sodipodi:namedview
     id="namedview7"
     pagecolor="#505050"
     bordercolor="#ffffff"
     borderopacity="1"
     inkscape:pageshadow="0"
     inkscape:pageopacity="0"
     inkscape:pagecheckerboard="1"
     inkscape:document-units="mm"
     showgrid="false"
     width="100mm"
     inkscape:zoom="1.4142136"
     inkscape:cx="245.7196"
     inkscape:cy="169.70562"
     inkscape:window-width="1920"
     inkscape:window-height="1046"
     inkscape:window-x="-11"
     inkscape:window-y="-11"
     inkscape:window-maximized="1"
     inkscape:current-layer="layer1" />
  <defs
     id="defs2" />
  <g
     inkscape:label="Edge"
     inkscape:groupmode="layer"
     id="layer1"
     style="display:inline">
    <rect
       style="fill:#ffc843;fill-opacity:1;stroke-width:0.264583"
       id="rect6013"
       width="100"
       height="100"
       x="-8.8817842e-16"
       y="0"
       rx="12.5"
       ry="12.5" />
  </g>
  <g
     inkscape:groupmode="layer"
     id="layer2"
     inkscape:label="Blackboard"
     style="display:inline">
    <rect
       style="display:inline;fill:#3c8664;fill-opacity:1;stroke-width:0.264583"
       id="rect6117"
       width="80"
       height="80"
       x="0.51192945"
       y="17.955013"
       rx="15"
       transform="rotate(-10.045538)"
       ry="15" />
  </g>
  <g
     inkscape:groupmode="layer"
     id="layer4"
     inkscape:label="Camera">
    <path
       id="path14433"
       style="fill:#ffffff;fill-opacity:1;stroke-width:1.266"
       d="M 188.97656 56.693359 A 132.28346 132.28346 0 0 0 56.693359 188.97656 A 132.28346 132.28346 0 0 0 188.97656 321.25977 A 132.28346 132.28346 0 0 0 295.11914 267.76758 L 254.57617 237.67188 A 81.75572 81.75572 0 0 1 252.89648 239.95117 A 81.75572 81.75572 0 0 1 248.9082 244.58398 A 81.75572 81.75572 0 0 1 244.58398 248.9082 A 81.75572 81.75572 0 0 1 239.95117 252.89648 A 81.75572 81.75572 0 0 1 235.03125 256.52539 A 81.75572 81.75572 0 0 1 229.85352 259.7793 A 81.75572 81.75572 0 0 1 224.44922 262.63477 A 81.75572 81.75572 0 0 1 218.8457 265.08008 A 81.75572 81.75572 0 0 1 213.07422 267.09961 A 81.75572 81.75572 0 0 1 207.16797 268.68164 A 81.75572 81.75572 0 0 1 201.16211 269.81836 A 81.75572 81.75572 0 0 1 195.08594 270.50391 A 81.75572 81.75572 0 0 1 188.97656 270.73242 A 81.75572 81.75572 0 0 1 182.86719 270.50391 A 81.75572 81.75572 0 0 1 176.79102 269.81836 A 81.75572 81.75572 0 0 1 170.7832 268.68164 A 81.75572 81.75572 0 0 1 164.87891 267.09961 A 81.75572 81.75572 0 0 1 159.10742 265.08008 A 81.75572 81.75572 0 0 1 153.50391 262.63477 A 81.75572 81.75572 0 0 1 148.09766 259.7793 A 81.75572 81.75572 0 0 1 142.92188 256.52539 A 81.75572 81.75572 0 0 1 138.00195 252.89648 A 81.75572 81.75572 0 0 1 133.36914 248.9082 A 81.75572 81.75572 0 0 1 129.04492 244.58398 A 81.75572 81.75572 0 0 1 125.05664 239.95117 A 81.75572 81.75572 0 0 1 121.42578 235.03125 A 81.75572 81.75572 0 0 1 118.17383 229.85352 A 81.75572 81.75572 0 0 1 115.31641 224.44922 A 81.75572 81.75572 0 0 1 112.87305 218.8457 A 81.75572 81.75572 0 0 1 110.85352 213.07422 A 81.75572 81.75572 0 0 1 109.26953 207.16797 A 81.75572 81.75572 0 0 1 108.13477 201.16211 A 81.75572 81.75572 0 0 1 107.44922 195.08594 A 81.75572 81.75572 0 0 1 107.2207 188.97656 A 81.75572 81.75572 0 0 1 107.44922 182.86719 A 81.75572 81.75572 0 0 1 108.13477 176.79102 A 81.75572 81.75572 0 0 1 109.26953 170.7832 A 81.75572 81.75572 0 0 1 110.85352 164.87891 A 81.75572 81.75572 0 0 1 112.87305 159.10742 A 81.75572 81.75572 0 0 1 115.31641 153.50391 A 81.75572 81.75572 0 0 1 118.17383 148.09766 A 81.75572 81.75572 0 0 1 121.42578 142.92188 A 81.75572 81.75572 0 0 1 125.05664 138.00195 A 81.75572 81.75572 0 0 1 129.04492 133.36914 A 81.75572 81.75572 0 0 1 133.36914 129.04492 A 81.75572 81.75572 0 0 1 138.00195 125.05664 A 81.75572 81.75572 0 0 1 142.92188 121.42578 A 81.75572 81.75572 0 0 1 148.09766 118.17383 A 81.75572 81.75572 0 0 1 153.50391 115.31641 A 81.75572 81.75572 0 0 1 159.10742 112.87305 A 81.75572 81.75572 0 0 1 164.87891 110.85352 A 81.75572 81.75572 0 0 1 170.7832 109.26953 A 81.75572 81.75572 0 0 1 176.79102 108.13477 A 81.75572 81.75572 0 0 1 182.86719 107.44922 A 81.75572 81.75572 0 0 1 188.97656 107.2207 A 81.75572 81.75572 0 0 1 191.08203 107.24805 A 81.75572 81.75572 0 0 1 193.18555 107.32812 A 81.75572 81.75572 0 0 1 195.28516 107.46484 A 81.75572 81.75572 0 0 1 197.38281 107.6543 A 81.75572 81.75572 0 0 1 199.47461 107.89648 A 81.75572 81.75572 0 0 1 201.55859 108.19531 A 81.75572 81.75572 0 0 1 203.63281 108.54492 A 81.75572 81.75572 0 0 1 205.69922 108.94922 A 81.75572 81.75572 0 0 1 207.75391 109.40625 A 81.75572 81.75572 0 0 1 209.79688 109.91602 A 81.75572 81.75572 0 0 1 211.82617 110.47852 A 81.75572 81.75572 0 0 1 213.83984 111.09375 A 81.75572 81.75572 0 0 1 215.83594 111.75977 A 81.75572 81.75572 0 0 1 217.81641 112.47656 A 81.75572 81.75572 0 0 1 219.77539 113.24414 A 81.75572 81.75572 0 0 1 221.71484 114.0625 A 81.75572 81.75572 0 0 1 223.63477 114.92969 A 81.75572 81.75572 0 0 1 225.5293 115.84766 A 81.75572 81.75572 0 0 1 227.40039 116.8125 A 81.75572 81.75572 0 0 1 229.24414 117.82617 A 81.75572 81.75572 0 0 1 231.06445 118.88672 A 81.75572 81.75572 0 0 1 232.85352 119.99219 A 81.75572 81.75572 0 0 1 234.61523 121.14648 A 81.75572 81.75572 0 0 1 236.34766 122.34375 A 81.75572 81.75572 0 0 1 238.04688 123.58398 A 81.75572 81.75572 0 0 1 239.71484 124.86914 A 81.75572 81.75572 0 0 1 241.34766 126.19727 A 81.75572 81.75572 0 0 1 242.94727 127.56641 A 81.75572 81.75572 0 0 1 244.51172 128.97656 A 81.75572 81.75572 0 0 1 246.03711 130.42773 A 81.75572 81.75572 0 0 1 247.52539 131.91602 A 81.75572 81.75572 0 0 1 248.97656 133.44141 A 81.75572 81.75572 0 0 1 250.38477 135.00586 A 81.75572 81.75572 0 0 1 251.75586 136.60352 A 81.75572 81.75572 0 0 1 253.08203 138.23828 A 81.75572 81.75572 0 0 1 254.36719 139.90625 A 81.75572 81.75572 0 0 1 254.61914 140.25 L 295.1875 110.13477 A 132.28346 132.28346 0 0 0 188.97656 56.693359 z "
       transform="scale(0.26458333)" />
  </g>
</svg>
